<svg enable-background="new 0 0 24 24" height="24" viewBox="0 0 24 24" width="24" xmlns="http://www.w3.org/2000/svg"><path d="m0 0h24v24h-24z" fill="none"/><path d="m8.83 6h10.17v10.17l-1.4-1.4c.24-.18.4-.45.4-.77v-1h-1.5v.5h-.17l-1.83-1.83v-1.17h2v.5h1.5v-1c0-.55-.45-1-1-1h-3c-.55 0-1 .45-1 1v.17zm-1.33 7.5h2v-.5h.67l-2.5-2.5h-.17zm3.5.5c0 .55-.45 1-1 1h-3c-.55 0-1-.45-1-1v-4c0-.32.16-.59.4-.78l-1.4-1.39v10.17h10.17l-4.17-4.17z" opacity=".3"/><path d="m6.83 4h12.17c1.1 0 2 .9 2 2v12c0 .05-.01.1-.02.16l-1.98-1.99v-10.17h-10.17zm12.95 18.61-2.61-2.61h-12.17c-1.11 0-2-.9-2-2v-12c0-.05.02-.1.02-.15l-1.63-1.63 1.41-1.41 15.2 15.19 1.82 1.82 1.37 1.37zm-12.28-9.11h2v-.5h.67l-2.5-2.5h-.17zm7.67 4.5-4.17-4.17v.17c0 .55-.45 1-1 1h-3c-.55 0-1-.45-1-1v-4c0-.32.16-.59.4-.78l-1.4-1.39v10.17zm2.83-4v-1h-1.5v.5h-.17l1.28 1.28c.23-.19.39-.46.39-.78zm-3.5-2.33v-1.17h2v.5h1.5v-1c0-.55-.45-1-1-1h-3c-.55 0-1 .45-1 1v.17z"/></svg>
